<svg width="24" height="25" viewBox="0 0 24 25" fill="none" xmlns="http://www.w3.org/2000/svg">
<g id="ic:baseline-discord">
<path id="Vector" d="M19.2682 6.10783C17.9382 5.48783 16.4982 5.03783 14.9982 4.77783C14.9718 4.77821 14.9466 4.78899 14.9282 4.80783C14.7482 5.13783 14.5382 5.56783 14.3982 5.89783C12.8072 5.65798 11.1892 5.65798 9.59816 5.89783C9.45816 5.55783 9.24816 5.13783 9.05816 4.80783C9.04816 4.78783 9.01816 4.77783 8.98816 4.77783C7.48816 5.03783 6.05816 5.48783 4.71816 6.10783C4.70816 6.10783 4.69816 6.11783 4.68816 6.12783C1.96816 10.1978 1.21816 14.1578 1.58816 18.0778C1.58816 18.0978 1.59816 18.1178 1.61816 18.1278C3.41816 19.4478 5.14816 20.2478 6.85816 20.7778C6.88816 20.7878 6.91816 20.7778 6.92816 20.7578C7.32816 20.2078 7.68816 19.6278 7.99816 19.0178C8.01816 18.9778 7.99816 18.9378 7.95816 18.9278C7.38816 18.7078 6.84816 18.4478 6.31816 18.1478C6.27816 18.1278 6.27816 18.0678 6.30816 18.0378C6.41816 17.9578 6.52816 17.8678 6.63816 17.7878C6.65816 17.7678 6.68816 17.7678 6.70816 17.7778C10.1482 19.3478 13.8582 19.3478 17.2582 17.7778C17.2782 17.7678 17.3082 17.7678 17.3282 17.7878C17.4382 17.8778 17.5482 17.9578 17.6582 18.0478C17.6982 18.0778 17.6982 18.1378 17.6482 18.1578C17.1282 18.4678 16.5782 18.7178 16.0082 18.9378C15.9682 18.9478 15.9582 18.9978 15.9682 19.0278C16.2882 19.6378 16.6482 20.2178 17.0382 20.7678C17.0682 20.7778 17.0982 20.7878 17.1282 20.7778C18.8482 20.2478 20.5782 19.4478 22.3782 18.1278C22.3982 18.1178 22.4082 18.0978 22.4082 18.0778C22.8482 13.5478 21.6782 9.61783 19.3082 6.12783C19.2982 6.11783 19.2882 6.10783 19.2682 6.10783ZM8.51816 15.6878C7.48816 15.6878 6.62816 14.7378 6.62816 13.5678C6.62816 12.3978 7.46816 11.4478 8.51816 11.4478C9.57817 11.4478 10.4182 12.4078 10.4082 13.5678C10.4082 14.7378 9.56816 15.6878 8.51816 15.6878ZM15.4882 15.6878C14.4582 15.6878 13.5982 14.7378 13.5982 13.5678C13.5982 12.3978 14.4382 11.4478 15.4882 11.4478C16.5482 11.4478 17.3882 12.4078 17.3782 13.5678C17.3782 14.7378 16.5482 15.6878 15.4882 15.6878Z" fill="#5777D0"/>
</g>
</svg>
