<svg width="24" height="25" viewBox="0 0 24 25" fill="none" xmlns="http://www.w3.org/2000/svg">
<g id="line-md:instagram">
<path id="Vector" d="M17 8.92627C17.8284 8.92627 18.5 8.2547 18.5 7.42627C18.5 6.59784 17.8284 5.92627 17 5.92627C16.1716 5.92627 15.5 6.59784 15.5 7.42627C15.5 8.2547 16.1716 8.92627 17 8.92627Z" fill="#5777D0"/>
<g id="Group">
<path id="Vector_2" d="M16 3.42627C18.76 3.42627 21 5.66627 21 8.42627V16.4263C21 19.1863 18.76 21.4263 16 21.4263H8C5.24 21.4263 3 19.1863 3 16.4263V8.42627C3 5.66627 5.24 3.42627 8 3.42627H12H16Z" stroke="#5777D0" stroke-width="2" stroke-linecap="round" stroke-linejoin="round"/>
<path id="Vector_3" d="M12 8.42627C14.21 8.42627 16 10.2163 16 12.4263C16 14.6363 14.21 16.4263 12 16.4263C9.79 16.4263 8 14.6363 8 12.4263C8 10.2163 9.79 8.42627 12 8.42627Z" stroke="#5777D0" stroke-width="2" stroke-linecap="round" stroke-linejoin="round"/>
</g>
</g>
</svg>
